<svg xmlns="http://www.w3.org/2000/svg" width="720" height="280" viewBox="0 0 720 280">
  <rect width="100%" height="100%" fill="#ffffff"/>
  <text x="360.0" y="22" text-anchor="middle" font-size="14" font-family="ui-sans-serif,system-ui" fill="#111827">P5-A · ppo_actor/seq_len/avg</text>
  <text x="14" y="140.0" text-anchor="middle" font-size="11" fill="#6b7280" transform="rotate(-90 14 140.0)">seq_len</text>
  <line x1="44" y1="236.00" x2="676" y2="236.00" stroke="#e5e7eb" stroke-width="1"/><text x="36" y="240.00" text-anchor="end" font-size="11" fill="#6b7280">471</text><line x1="44" y1="188.00" x2="676" y2="188.00" stroke="#e5e7eb" stroke-width="1"/><text x="36" y="192.00" text-anchor="end" font-size="11" fill="#6b7280">488</text><line x1="44" y1="140.00" x2="676" y2="140.00" stroke="#e5e7eb" stroke-width="1"/><text x="36" y="144.00" text-anchor="end" font-size="11" fill="#6b7280">505</text><line x1="44" y1="92.00" x2="676" y2="92.00" stroke="#e5e7eb" stroke-width="1"/><text x="36" y="96.00" text-anchor="end" font-size="11" fill="#6b7280">522</text><line x1="44" y1="44.00" x2="676" y2="44.00" stroke="#e5e7eb" stroke-width="1"/><text x="36" y="48.00" text-anchor="end" font-size="11" fill="#6b7280">539</text><text x="44.00" y="252" text-anchor="middle" font-size="11" fill="#6b7280">1</text><text x="202.00" y="252" text-anchor="middle" font-size="11" fill="#6b7280">37</text><text x="360.00" y="252" text-anchor="middle" font-size="11" fill="#6b7280">74</text><text x="518.00" y="252" text-anchor="middle" font-size="11" fill="#6b7280">110</text><text x="676.00" y="252" text-anchor="middle" font-size="11" fill="#6b7280">147</text>
  <polyline fill="none" stroke="#be185d" stroke-width="2" points="44.00,155.50 48.33,117.36 52.66,120.47 56.99,128.57 61.32,108.36 65.64,51.25 69.97,104.89 74.30,187.03 78.63,121.82 82.96,44.00 87.29,114.65 91.62,147.59 95.95,128.91 100.27,104.04 104.60,156.26 108.93,95.01 113.26,131.25 117.59,169.30 121.92,110.73 126.25,89.36 130.58,64.38 134.90,105.25 139.23,140.59 143.56,150.67 147.89,168.17 152.22,178.95 156.55,131.22 160.88,152.62 165.21,92.44 169.53,164.50 173.86,80.75 178.19,55.74 182.52,130.63 186.85,129.02 191.18,144.60 195.51,137.97 199.84,120.13 204.16,134.98 208.49,149.54 212.82,100.28 217.15,107.06 221.48,99.24 225.81,117.50 230.14,88.74 234.47,98.99 238.79,182.88 243.12,92.69 247.45,153.49 251.78,118.21 256.11,120.44 260.44,130.54 264.77,109.26 269.10,51.25 273.42,108.64 277.75,186.63 282.08,119.17 286.41,46.46 290.74,113.41 295.07,152.50 299.40,131.16 303.73,101.75 308.05,160.78 312.38,96.70 316.71,131.90 321.04,166.99 325.37,110.42 329.70,86.99 334.03,59.67 338.36,106.66 342.68,142.40 347.01,152.11 351.34,168.26 355.67,179.18 360.00,130.46 364.33,153.32 368.66,97.04 372.99,167.66 377.32,81.51 381.64,55.71 385.97,133.73 390.30,131.70 394.63,146.15 398.96,138.00 403.29,118.52 407.62,138.14 411.95,151.52 416.27,103.25 420.60,112.28 424.93,101.61 429.26,117.81 433.59,90.80 437.92,101.55 442.25,181.30 446.58,96.95 450.90,146.72 455.23,231.31 459.56,124.42 463.89,202.61 468.22,169.16 472.55,146.35 476.88,125.91 481.21,154.31 485.53,173.00 489.86,103.02 494.19,135.03 498.52,139.35 502.85,76.72 507.18,161.68 511.51,121.17 515.84,119.96 520.16,143.44 524.49,164.98 528.82,142.82 533.15,139.24 537.48,108.41 541.81,167.24 546.14,159.79 550.47,188.52 554.79,125.49 559.12,185.56 563.45,122.73 567.78,178.11 572.11,100.54 576.44,135.54 580.77,153.61 585.10,160.97 589.42,110.64 593.75,171.73 598.08,131.56 602.41,236.00 606.74,198.01 611.07,212.77 615.40,216.41 619.73,177.80 624.05,98.51 628.38,183.89 632.71,210.77 637.04,86.48 641.37,201.62 645.70,174.04 650.03,150.13 654.36,160.75 658.68,179.18 663.01,175.51 667.34,186.41 671.67,164.11 676.00,125.38"/>
  <text x="360.0" y="272" text-anchor="middle" font-size="11" fill="#6b7280">step</text>
</svg>
